<?xml version="1.0" encoding="UTF-8"?>
<svg width="100px" height="22px" viewBox="0 0 100 22" version="1.1" xmlns="http://www.w3.org/2000/svg" xmlns:xlink="http://www.w3.org/1999/xlink">
    <!-- Generator: sketchtool 49.3 (51167) - http://www.bohemiancoding.com/sketch -->
    <title>A6FE85F1-CA47-4A3E-BBD0-74FE4DCA42FF</title>
    <desc>Created with sketchtool.</desc>
    <defs></defs>
    <g id="Design" stroke="none" stroke-width="1" fill="none" fill-rule="evenodd">
        <g id="0-0-스플래시" transform="translate(-130.000000, -309.000000)" fill="#FFFFFF">
            <g id="logo" transform="translate(130.000000, 309.000000)">
                <g id="Page-1">
                    <g>
                        <path d="M18.8970201,7.44907832 L18.7236676,7.44907832 C17.5133524,7.50454632 16.900745,7.69346705 16.900745,8.89152101 L16.900745,13.7392049 L16.900745,15.2763825 L16.900745,20.1240664 C16.900745,21.3221203 17.5133524,21.5110411 18.7236676,21.5665091 L18.8970201,21.5665091 C20.1076218,21.5110411 20.7199427,21.3221203 20.7199427,20.1240664 L20.7199427,15.2763825 L20.7199427,13.7392049 L20.7199427,8.89152101 C20.7199427,7.69346705 20.1076218,7.50454632 18.8970201,7.44907832" id="Fill-1"></path>
                        <path d="M19.0609742,0.466782474 L19.637192,1.58575334 C19.6896275,1.68735315 19.7907736,1.75792383 19.9079656,1.77439947 L21.1967908,1.95370941 C21.4916332,1.99489852 21.6093983,2.34226003 21.3959312,2.54161533 L20.463553,3.41290234 C20.3787393,3.49198543 20.3400573,3.60621657 20.3601146,3.71797636 L20.5801719,4.94760864 C20.6306017,5.22934217 20.3222923,5.44407474 20.0583954,5.3111712 L18.9056734,4.73040473 C18.8010888,4.67768266 18.6758739,4.67768266 18.5710029,4.73040473 L17.4185673,5.3111712 C17.1546705,5.44407474 16.846361,5.22934217 16.8965043,4.94760864 L17.1168481,3.71797636 C17.1369054,3.60621657 17.097937,3.49198543 17.0134097,3.41290234 L16.080745,2.54161533 C15.8672779,2.34226003 15.9853295,1.99489852 16.2801719,1.95370941 L17.5687106,1.77439947 C17.6859026,1.75792383 17.7873352,1.68735315 17.8394842,1.58575334 L18.4159885,0.466782474 C18.5477937,0.210586199 18.9291691,0.210586199 19.0609742,0.466782474" id="Fill-3"></path>
                        <path d="M30.107192,11.1799606 C29.1281089,11.1799606 28.2965903,11.5133178 27.6117765,12.1786593 C26.9263897,12.8445499 26.5842693,13.6463646 26.5842693,14.5841034 C26.5842693,15.5221168 26.9263897,16.3192634 27.6117765,16.9755432 C28.2965903,17.6323723 29.1281089,17.9602376 30.107192,17.9602376 C30.694298,17.9602376 31.1736676,18.1389983 31.5458739,18.4948723 C31.9172206,18.8512954 32.1037536,19.3106913 32.1037536,19.8733345 C32.1037536,20.4362524 31.9172206,20.8912548 31.5458739,21.2380671 C31.1736676,21.585154 30.694298,21.7584229 30.107192,21.7584229 C28.0126361,21.7584229 26.2415759,21.0647982 24.7934384,19.6764506 C23.3447278,18.2889267 22.6209456,16.5916607 22.6209456,14.5841034 C22.6209456,12.5586975 23.3401433,10.8520953 24.7788252,9.46374761 C26.2172206,8.07594914 27.9934384,7.38177531 30.107192,7.38177531 C30.694298,7.38177531 31.1736676,7.56026146 31.5458739,7.91613539 C31.9172206,8.27283309 32.1037536,8.73222899 32.1037536,9.29487225 C32.1037536,9.85779011 31.9172206,10.3127925 31.5458739,10.6593302 C31.1736676,11.0066917 30.694298,11.1799606 30.107192,11.1799606" id="Fill-6"></path>
                        <path d="M41.9382808,20.3051337 L41.9382808,18.5510267 C41.9382808,17.9139685 41.7079083,17.3793338 41.248596,16.9473973 C40.7881375,16.5162846 40.2253868,16.3004537 39.5603438,16.3004537 L37.6520344,16.3004537 L37.6520344,20.3051337 C37.6520344,21.8129298 36.2428653,21.7585602 35.6557593,21.7585602 C35.0686533,21.7585602 33.6887106,21.7588062 33.6887106,20.3051337 L33.6887106,3.18007402 C33.6887106,2.18604346 33.9783954,1.69863897 35.6557593,1.69863897 C37.6182235,1.69863897 37.6520344,2.18604346 37.6520344,3.18007402 L37.6520344,12.0052531 C37.6520344,12.0052531 39.8844126,12.1161891 40.587851,11.6584408 C41.1938682,11.2641237 41.2924355,9.99824499 41.2924355,9.37930993 C41.2924355,8.08514804 41.3162178,7.43820439 43.2591977,7.43820439 C45.3124928,7.43820439 45.2557593,8.07745941 45.2557593,9.32301815 C45.2557593,11.0301695 44.896447,13.0522803 43.317937,13.6841213 C45.04,14.903319 45.9016046,16.5256208 45.9016046,18.5510267 L45.9016046,20.3051337 C45.9016046,21.730277 44.8431519,21.7585602 43.9858453,21.7585602 C43.0506017,21.7585602 41.9382808,21.7588348 41.9382808,20.3051337" id="Fill-8"></path>
                        <path d="M55.4612894,11.5661223 C55.1283381,11.8852006 55.2372206,12.4838157 55.2372206,12.9525478 L55.2077077,16.9607975 C55.187937,18.4987989 54.9343553,19.5117765 53.8286246,20.5807713 C52.7226074,21.6494914 51.0584241,21.7304967 49.453553,21.7304967 C48.866447,21.7304967 48.18851,21.5569532 47.8269054,21.2098663 C47.4644413,20.863054 47.4867908,20.4080516 47.4867908,19.8454083 C47.4867908,19.2830396 47.4644413,18.8233691 47.8269054,18.466946 C48.18851,18.1107975 48.866447,17.9323114 49.453553,17.9323114 C49.9624355,17.9323114 50.387937,17.7683787 50.7306304,17.4399642 C51.0730372,17.1118243 51.244384,16.7040521 51.244384,16.2160984 L51.244384,15.6534551 C51.2638682,14.9032641 51.2738968,14.5188324 51.2738968,14.4998854 L51.2738968,12.9525478 C51.2738968,11.3958739 50.992235,9.42840735 52.2850716,8.38961796 C53.640659,7.29975406 55.853553,7.43814947 57.4784814,7.43814947 C58.0655874,7.43814947 58.43149,7.50103152 58.7028367,7.78825692 C59.0085673,8.11172875 59.0243266,8.76031996 59.0243266,9.32296323 C59.0243266,9.86720869 59.0286246,10.4809265 58.6764756,10.818128 C58.3240401,11.1558787 58.1289112,11.1756495 57.5515473,11.2220559 C56.9741834,11.2692861 55.7936676,11.2475931 55.4612894,11.5661223" id="Fill-10"></path>
                        <path d="M73.2333524,16.0698221 C73.2333524,21.0295404 71.5743266,21.7585876 66.9216046,21.7585876 C65.120745,21.7585876 60.5803438,21.4870141 60.5803438,17.4600919 L60.5803438,5.62810769 C60.5803438,5.06518983 60.7608596,4.7974606 61.1233238,4.44131208 C61.4852149,4.08516356 61.96,4.09010626 62.547106,4.09010626 C63.134212,4.09010626 63.6138682,4.08516356 63.985788,4.44131208 C64.3571347,4.7974606 64.5436676,5.06518983 64.5436676,5.62810769 L64.5436676,7.49452364 L71.2663037,7.49452364 C72.7327794,7.49452364 72.8405158,8.24718601 72.8405158,9.37933739 C72.8405158,10.6551015 72.5774785,11.2927089 71.2663037,11.2927089 L64.5436676,11.2927089 L64.5436676,16.631367 C64.5605731,17.9271765 66.255702,17.9604023 66.9216046,17.9604023 C69.2413754,17.9604023 69.2700287,17.0182701 69.2700287,15.6815461 L69.2700287,15.0862261 C69.2700287,13.9697266 70.6983954,13.9977352 71.2663037,13.9977352 C71.8339255,13.9977352 73.2333524,13.9257915 73.2333524,15.0862261 L73.2333524,16.0698221 Z" id="Fill-12"></path>
                        <path d="M82.333553,21.8145774 C80.2203725,21.8145774 78.4441547,21.1212273 77.0054728,19.7328797 C75.5673639,18.3450812 74.8478797,16.6379298 74.8478797,14.6122493 C74.8478797,12.5868434 75.5673639,10.8843601 77.0054728,9.5058978 C78.4441547,8.12743553 80.2203725,7.43820439 82.333553,7.43820439 C84.4481662,7.43820439 86.2283954,8.12743553 87.6768195,9.5058978 C89.1255301,10.8843601 89.8493123,12.5868434 89.8493123,14.6122493 L89.8493123,20.8005014 C89.8493123,21.3631447 89.1094842,21.7585602 87.8530372,21.7585602 C86.5802579,21.7585602 85.8859885,21.3631447 85.8859885,20.8005014 L85.8859885,14.6122493 C85.8859885,13.6745105 85.5389971,12.8776385 84.8441547,12.2208095 C84.1490258,11.5645296 83.3126361,11.2363897 82.333553,11.2363897 C81.355616,11.2363897 80.5235244,11.5645296 79.8384241,12.2208095 C79.1533238,12.8776385 78.8112034,13.6745105 78.8112034,14.6122493 C78.8112034,15.5505372 79.1533238,16.352352 79.8384241,17.0176934 C80.5235244,17.6838586 81.355616,18.0166667 82.333553,18.0166667 C84.4026074,18.0166667 84.3304011,19.3388372 84.3304011,19.901755 C84.3304011,20.4643983 84.6240974,21.8145774 82.333553,21.8145774" id="Fill-14"></path>
                        <path d="M95.3982235,12.9524928 L95.3982235,20.8940282 C95.3982235,21.456946 94.6741547,21.7584503 93.4016619,21.7584503 C92.2555301,21.7584503 91.4348997,21.456946 91.4348997,20.8940282 L91.4348997,13.4868529 C91.4348997,10.1980396 91.6583954,9.20071394 93.080745,8.26791786 C94.6116905,7.2642765 96.5810315,7.43809456 98.3621203,7.43809456 C99.8801719,7.43809456 99.7432092,8.50956065 99.7432092,9.32290831 C99.7432092,10.4863634 99.7715759,11.2362798 98.3030946,11.2362798 C97.6351862,11.2362798 96.1472206,11.3084981 95.9578223,11.4381065 C95.4618338,11.7777794 95.3982235,12.3154346 95.3982235,12.9524928" id="Fill-16"></path>
                        <path d="M11.183553,8.3653713 L9.8912894,9.57248687 C9.77381089,9.6820499 9.72022923,9.84021609 9.74802292,9.99508715 L10.0531805,11.6994926 C10.122808,12.0896908 9.69558739,12.3870762 9.32997135,12.2030981 L7.73283668,11.3982629 L5.67180516,12.2030981 C5.30618911,12.3870762 4.87896848,12.0896908 4.94888252,11.6994926 L5.25375358,9.99508715 C5.28154728,9.84021609 5.22796562,9.6820499 5.11048711,9.57248687 L3.8182235,8.3653713 C3.52252149,8.08885506 3.68584527,7.60749164 4.09444126,7.55065067 L5.88040115,7.30214303 C6.0425788,7.27962631 6.18297994,7.18159623 6.25547278,7.04100406 L7.05404011,5.4900967 C7.23684814,5.13504656 7.76492837,5.13504656 7.94773639,5.4900967 L8.74630372,7.04100406 C8.81908309,7.18159623 8.95919771,7.27962631 9.12166189,7.30214303 L10.9073352,7.55065067 C11.3159312,7.60749164 11.479255,8.08885506 11.183553,8.3653713 M12.8293983,3.73818649 C11.3806877,2.35972421 9.60017192,1.67049308 7.48613181,1.67049308 C5.37237822,1.67049308 3.59644699,2.35972421 2.15776504,3.73818649 C0.719083095,5.11692335 -0.000114613181,6.81885745 -0.000114613181,8.84453797 L-0.000114613181,20.7366583 C-0.000114613181,21.2809038 0.289570201,21.7584229 1.9669341,21.7584229 C3.54429799,21.7584229 3.96320917,21.2995762 3.96320917,20.7366583 L3.96320917,16.0227018 C4.96836676,16.0776206 6.36664756,16.124027 7.48613181,16.0474152 C9.60017192,16.0474152 11.3806877,15.353516 12.8293983,13.9654429 C14.2775358,12.5773699 15.0018911,10.8704931 15.0018911,8.84453797 C15.0018911,6.81885745 14.2775358,5.11692335 12.8293983,3.73818649" id="Fill-18"></path>
                    </g>
                </g>
            </g>
        </g>
    </g>
</svg>